<mxfile host="app.diagrams.net" modified="2021-08-04T03:54:58.133Z" agent="5.0 (X11; Linux x86_64) AppleWebKit/537.36 (KHTML, like Gecko) Chrome/92.0.4515.107 Safari/537.36" etag="mj62BiTgozkfjX51PcCB" version="14.9.2" type="github">
  <diagram id="YBOoNJlCIfRgQLqw-pG8" name="第 1 页">
    <mxGraphModel dx="713" dy="711" grid="1" gridSize="10" guides="1" tooltips="1" connect="1" arrows="1" fold="1" page="1" pageScale="1" pageWidth="827" pageHeight="1169" math="0" shadow="0">
      <root>
        <mxCell id="0" />
        <mxCell id="1" parent="0" />
        <mxCell id="A56-wQc7-pKVE9vsMWfX-1" value="Alice密钥" style="rounded=1;whiteSpace=wrap;html=1;fillColor=#d80073;strokeColor=#A50040;glass=0;shadow=1;fontColor=#ffffff;" vertex="1" parent="1">
          <mxGeometry x="110" y="220" width="120" height="60" as="geometry" />
        </mxCell>
        <mxCell id="A56-wQc7-pKVE9vsMWfX-3" value="Bob密钥" style="rounded=1;whiteSpace=wrap;html=1;fillColor=#1ba1e2;strokeColor=#006EAF;glass=0;shadow=1;fontColor=#ffffff;" vertex="1" parent="1">
          <mxGeometry x="110" y="320" width="120" height="60" as="geometry" />
        </mxCell>
        <mxCell id="A56-wQc7-pKVE9vsMWfX-4" value="Charlie密钥" style="rounded=1;whiteSpace=wrap;html=1;fillColor=#60a917;strokeColor=#2D7600;glass=0;shadow=1;fontColor=#ffffff;" vertex="1" parent="1">
          <mxGeometry x="110" y="420" width="120" height="60" as="geometry" />
        </mxCell>
        <mxCell id="A56-wQc7-pKVE9vsMWfX-5" value="" style="points=[[0,0.5,0],[0.24,0,0],[0.5,0.28,0],[0.995,0.475,0],[0.5,0.72,0],[0.24,1,0]];verticalLabelPosition=bottom;html=1;verticalAlign=top;aspect=fixed;align=center;pointerEvents=1;shape=mxgraph.cisco19.key;strokeColor=#A50040;rounded=1;shadow=1;glass=0;fillColor=#d80073;fontColor=#ffffff;" vertex="1" parent="1">
          <mxGeometry x="240" y="238.75" width="50" height="22.5" as="geometry" />
        </mxCell>
        <mxCell id="A56-wQc7-pKVE9vsMWfX-8" value="" style="points=[[0,0.5,0],[0.24,0,0],[0.5,0.28,0],[0.995,0.475,0],[0.5,0.72,0],[0.24,1,0]];verticalLabelPosition=bottom;html=1;verticalAlign=top;aspect=fixed;align=center;pointerEvents=1;shape=mxgraph.cisco19.key;strokeColor=#006EAF;rounded=1;shadow=1;glass=0;fillColor=#1ba1e2;fontColor=#ffffff;" vertex="1" parent="1">
          <mxGeometry x="240" y="338.75" width="50" height="22.5" as="geometry" />
        </mxCell>
        <mxCell id="A56-wQc7-pKVE9vsMWfX-9" value="" style="points=[[0,0.5,0],[0.24,0,0],[0.5,0.28,0],[0.995,0.475,0],[0.5,0.72,0],[0.24,1,0]];verticalLabelPosition=bottom;html=1;verticalAlign=top;aspect=fixed;align=center;pointerEvents=1;shape=mxgraph.cisco19.key;strokeColor=#2D7600;rounded=1;shadow=1;glass=0;fillColor=#60a917;fontColor=#ffffff;" vertex="1" parent="1">
          <mxGeometry x="240" y="438.75" width="50" height="22.5" as="geometry" />
        </mxCell>
        <mxCell id="A56-wQc7-pKVE9vsMWfX-17" value="" style="edgeStyle=orthogonalEdgeStyle;curved=1;rounded=0;orthogonalLoop=1;jettySize=auto;html=1;" edge="1" parent="1" source="A56-wQc7-pKVE9vsMWfX-10" target="A56-wQc7-pKVE9vsMWfX-16">
          <mxGeometry relative="1" as="geometry" />
        </mxCell>
        <mxCell id="A56-wQc7-pKVE9vsMWfX-10" value="Musig2方案" style="html=1;whiteSpace=wrap;aspect=fixed;shape=isoRectangle;rounded=1;shadow=1;glass=0;fillColor=#FFF2CC;" vertex="1" parent="1">
          <mxGeometry x="370" y="305" width="150" height="90" as="geometry" />
        </mxCell>
        <mxCell id="A56-wQc7-pKVE9vsMWfX-13" value="" style="edgeStyle=orthogonalEdgeStyle;elbow=horizontal;endArrow=classic;html=1;exitX=0.995;exitY=0.475;exitDx=0;exitDy=0;exitPerimeter=0;entryX=0.201;entryY=0.298;entryDx=0;entryDy=0;entryPerimeter=0;curved=1;" edge="1" parent="1" source="A56-wQc7-pKVE9vsMWfX-5" target="A56-wQc7-pKVE9vsMWfX-10">
          <mxGeometry width="50" height="50" relative="1" as="geometry">
            <mxPoint x="400" y="380" as="sourcePoint" />
            <mxPoint x="450" y="330" as="targetPoint" />
          </mxGeometry>
        </mxCell>
        <mxCell id="A56-wQc7-pKVE9vsMWfX-14" value="" style="edgeStyle=orthogonalEdgeStyle;elbow=horizontal;endArrow=classic;html=1;exitX=0.995;exitY=0.475;exitDx=0;exitDy=0;exitPerimeter=0;entryX=0.201;entryY=0.698;entryDx=0;entryDy=0;entryPerimeter=0;curved=1;" edge="1" parent="1" source="A56-wQc7-pKVE9vsMWfX-9" target="A56-wQc7-pKVE9vsMWfX-10">
          <mxGeometry width="50" height="50" relative="1" as="geometry">
            <mxPoint x="299.75" y="259.4375" as="sourcePoint" />
            <mxPoint x="530.15" y="341.81999999999994" as="targetPoint" />
          </mxGeometry>
        </mxCell>
        <mxCell id="A56-wQc7-pKVE9vsMWfX-15" value="" style="edgeStyle=orthogonalEdgeStyle;elbow=horizontal;endArrow=classic;html=1;exitX=0.995;exitY=0.475;exitDx=0;exitDy=0;exitPerimeter=0;entryX=-0.001;entryY=0.502;entryDx=0;entryDy=0;entryPerimeter=0;curved=1;" edge="1" parent="1" source="A56-wQc7-pKVE9vsMWfX-8" target="A56-wQc7-pKVE9vsMWfX-10">
          <mxGeometry width="50" height="50" relative="1" as="geometry">
            <mxPoint x="299.75" y="459.4375" as="sourcePoint" />
            <mxPoint x="530.15" y="377.81999999999994" as="targetPoint" />
          </mxGeometry>
        </mxCell>
        <mxCell id="A56-wQc7-pKVE9vsMWfX-16" value="聚合密钥" style="whiteSpace=wrap;html=1;rounded=1;shadow=1;fillColor=#FFF2CC;glass=0;" vertex="1" parent="1">
          <mxGeometry x="550" y="320" width="75" height="60" as="geometry" />
        </mxCell>
        <mxCell id="A56-wQc7-pKVE9vsMWfX-18" value="" style="points=[[0,0.5,0],[0.24,0,0],[0.5,0.28,0],[0.995,0.475,0],[0.5,0.72,0],[0.24,1,0]];verticalLabelPosition=bottom;html=1;verticalAlign=top;aspect=fixed;align=center;pointerEvents=1;shape=mxgraph.cisco19.key;strokeColor=#2D7600;rounded=1;shadow=1;glass=0;fillColor=#60a917;fontColor=#ffffff;" vertex="1" parent="1">
          <mxGeometry x="630" y="348.12" width="50" height="22.5" as="geometry" />
        </mxCell>
        <mxCell id="A56-wQc7-pKVE9vsMWfX-19" value="" style="points=[[0,0.5,0],[0.24,0,0],[0.5,0.28,0],[0.995,0.475,0],[0.5,0.72,0],[0.24,1,0]];verticalLabelPosition=bottom;html=1;verticalAlign=top;aspect=fixed;align=center;pointerEvents=1;shape=mxgraph.cisco19.key;strokeColor=#006EAF;rounded=1;shadow=1;glass=0;fillColor=#1ba1e2;fontColor=#ffffff;" vertex="1" parent="1">
          <mxGeometry x="630" y="339.37" width="50" height="22.5" as="geometry" />
        </mxCell>
        <mxCell id="A56-wQc7-pKVE9vsMWfX-20" value="" style="points=[[0,0.5,0],[0.24,0,0],[0.5,0.28,0],[0.995,0.475,0],[0.5,0.72,0],[0.24,1,0]];verticalLabelPosition=bottom;html=1;verticalAlign=top;aspect=fixed;align=center;pointerEvents=1;shape=mxgraph.cisco19.key;strokeColor=#A50040;rounded=1;shadow=1;glass=0;fillColor=#d80073;fontColor=#ffffff;" vertex="1" parent="1">
          <mxGeometry x="630" y="329.37" width="50" height="22.5" as="geometry" />
        </mxCell>
        <mxCell id="A56-wQc7-pKVE9vsMWfX-21" value="更少交互&lt;br&gt;两轮通信" style="text;fillColor=none;html=1;fontSize=10;fontStyle=0;verticalAlign=middle;align=center;rounded=1;shadow=1;glass=0;dashed=1;strokeColor=#D80073;" vertex="1" parent="1">
          <mxGeometry x="405" y="395" width="80" height="40" as="geometry" />
        </mxCell>
      </root>
    </mxGraphModel>
  </diagram>
</mxfile>
